HIERARCHY
ROOT joint_Root
{
	OFFSET 0.0 0.0 0.0
	CHANNELS 6 Xposition Yposition Zposition Zrotation Xrotation Yrotation 
	JOINT Hips
	{
		OFFSET -17.1583 93.1646 452.98
		CHANNELS 6 Xposition Yposition Zposition Zrotation Xrotation Yrotation 
		JOINT Spine
		{
			OFFSET 15.7357 0.0 0.0
			CHANNELS 6 Xposition Yposition Zposition Zrotation Xrotation Yrotation 
			JOINT Chest
			{
				OFFSET 8.98455 -0.406207 0.0
				CHANNELS 6 Xposition Yposition Zposition Zrotation Xrotation Yrotation 
				JOINT Neck
				{
					OFFSET 16.3773 0.0 0.0
					CHANNELS 6 Xposition Yposition Zposition Zrotation Xrotation Yrotation 
					JOINT Head
					{
						OFFSET 6.45672 0.0 0.0
						CHANNELS 6 Xposition Yposition Zposition Zrotation Xrotation Yrotation 
						End Site
						{
							OFFSET 0.0 0.0 0.0
						}
					}
				}
				JOINT Shoulder_L
				{
					OFFSET 12.9942 -0.242716 4.98039
					CHANNELS 6 Xposition Yposition Zposition Zrotation Xrotation Yrotation 
					JOINT UpperArm_L
					{
						OFFSET 5.34809 0.0 0.0
						CHANNELS 6 Xposition Yposition Zposition Zrotation Xrotation Yrotation 
						JOINT LowerArm_L
						{
							OFFSET 24.3286 1.87007e-05 0.0
							CHANNELS 6 Xposition Yposition Zposition Zrotation Xrotation Yrotation 
							JOINT Hand_L
							{
								OFFSET 22.2916 0.0 0.0
								CHANNELS 6 Xposition Yposition Zposition Zrotation Xrotation Yrotation 
								End Site
								{
									OFFSET 0.0 0.0 0.0
								}
							}
						}
					}
				}
				JOINT Shoulder_R
				{
					OFFSET 12.9945 -0.242716 -4.98039
					CHANNELS 6 Xposition Yposition Zposition Zrotation Xrotation Yrotation 
					JOINT UpperArm_R
					{
						OFFSET -5.34813 0.0 0.0
						CHANNELS 6 Xposition Yposition Zposition Zrotation Xrotation Yrotation 
						JOINT LowerArm_R
						{
							OFFSET -24.3289 0.000322201 0.0
							CHANNELS 6 Xposition Yposition Zposition Zrotation Xrotation Yrotation 
							JOINT Hand_R
							{
								OFFSET -22.2915 -0.000108084 0.0
								CHANNELS 6 Xposition Yposition Zposition Zrotation Xrotation Yrotation 
								End Site
								{
									OFFSET 0.0 0.0 0.0
								}
							}
						}
					}
				}
			}
		}
		JOINT UpperLeg_L
		{
			OFFSET -2.19248 -6.46944 0.0
			CHANNELS 6 Xposition Yposition Zposition Zrotation Xrotation Yrotation 
			JOINT LowerLeg_L
			{
				OFFSET 39.0811 0.0 -1.23785e-05
				CHANNELS 6 Xposition Yposition Zposition Zrotation Xrotation Yrotation 
				JOINT Foot_L
				{
					OFFSET 40.9854 0.0 -1.26872e-05
					CHANNELS 6 Xposition Yposition Zposition Zrotation Xrotation Yrotation 
					JOINT Toes_L
					{
						OFFSET 11.7543 0.0 0.0
						CHANNELS 6 Xposition Yposition Zposition Zrotation Xrotation Yrotation 
						End Site
						{
							OFFSET 0.0 0.0 0.0
						}
					}
				}
			}
		}
		JOINT UpperLeg_R
		{
			OFFSET -2.19251 6.46944 0.0
			CHANNELS 6 Xposition Yposition Zposition Zrotation Xrotation Yrotation 
			JOINT LowerLeg_R
			{
				OFFSET -39.0811 -0.00228153 -0.0401928
				CHANNELS 6 Xposition Yposition Zposition Zrotation Xrotation Yrotation 
				JOINT Foot_R
				{
					OFFSET -40.9854 0.0 0.0
					CHANNELS 6 Xposition Yposition Zposition Zrotation Xrotation Yrotation 
					JOINT Toes_R
					{
						OFFSET -11.7543 0.0 0.0
						CHANNELS 6 Xposition Yposition Zposition Zrotation Xrotation Yrotation 
						End Site
						{
							OFFSET 0.0 0.0 0.0
						}
					}
				}
			}
		}
	}
}
MOTION
Frames:	6
Frame Time:	0.0333333
0.000000 0.000000 0.000000 0.000000 0.000000 -0.000000 153.818000 89.528500 207.401000 96.553100 -55.760200 8.713690 15.735700 0.000005 -0.000001 72.089300 85.182700 -72.901900 8.984550 -0.406207 -0.000000 1.383590 -2.916280 -1.588900 16.377300 -0.000001 -0.000001 1.304800 -4.988050 -1.848310 6.456720 -0.000001 -0.000000 -7.196840 -8.074830 -2.205470 12.994200 -0.242716 4.980390 -93.900200 10.851700 -70.093100 5.348090 -0.000007 -0.000001 -60.067100 9.636020 -3.416370 24.328600 0.000019 0.000005 18.581300 36.775700 -29.311200 22.291600 -0.000001 0.000005 -9.856250 5.170810 3.440250 12.994500 -0.242716 -4.980390 88.286500 4.369660 -68.563900 -5.348130 -0.000001 -0.000004 -68.611300 14.196300 -6.391490 -24.328900 0.000322 -0.000009 -1.670560 -2.582570 -32.906800 -22.291500 -0.000108 -0.000004 -3.985140 5.421690 -3.659080 -2.192480 -6.469440 -0.000000 -171.366000 -5.063580 -15.068000 39.081100 -0.000007 -0.000012 0.146008 -0.056311 68.908000 40.985400 -0.000006 -0.000013 -11.786800 5.215360 -39.613700 11.754300 -0.000000 0.000003 0.002314 0.061651 -14.076200 -2.192510 6.469440 -0.000001 -169.988000 7.216700 174.755000 -39.081100 -0.002282 -0.040193 0.037987 -0.063943 28.475200 -40.985400 0.000008 0.000006 6.679140 -5.977390 -75.899000 -11.754300 -0.000006 -0.000006 -0.000742 0.179340 -9.298660
0.000000 0.000000 0.000000 0.000000 0.000000 -0.000000 151.443000 90.594500 209.611000 101.573000 -61.829800 12.140200 15.735700 0.000005 -0.000001 83.138300 85.784600 -84.681500 8.984550 -0.406207 -0.000000 0.594072 -0.910377 -3.079280 16.377300 -0.000001 -0.000001 1.699450 -3.879610 -1.851400 6.456720 -0.000001 -0.000000 -6.945250 -7.274680 -1.922380 12.994200 -0.242716 4.980390 -93.981900 10.480700 -69.059400 5.348090 -0.000007 -0.000001 -62.040400 -0.008046 0.494944 24.328600 0.000019 0.000005 8.748530 39.465100 -13.612100 22.291600 -0.000001 0.000005 -8.263640 5.062540 5.943220 12.994500 -0.242716 -4.980390 88.448900 4.121200 -69.355100 -5.348130 -0.000001 -0.000004 -67.990400 17.105700 -10.258100 -24.328900 0.000322 -0.000009 -1.214950 -1.510150 -38.804100 -22.291500 -0.000108 -0.000004 -2.440810 5.414430 -3.412560 -2.192480 -6.469440 -0.000000 -173.950000 -6.140770 -19.587700 39.081100 -0.000007 -0.000012 0.136960 -0.058270 66.950700 40.985400 -0.000006 -0.000013 -10.314400 -0.427533 -45.735300 11.754300 -0.000000 0.000003 0.002427 0.070736 -13.707900 -2.192510 6.469440 -0.000001 -172.778000 2.998580 179.052000 -39.081100 -0.002282 -0.040193 0.024296 -0.048262 23.496500 -40.985400 0.000008 0.000006 6.129610 -3.073460 -74.426700 -11.754300 -0.000006 -0.000006 -0.000565 0.176693 -9.406220
0.000000 0.000000 0.000000 0.000000 0.000000 -0.000000 149.069000 91.467400 211.753000 107.364000 -68.168100 16.400500 15.735700 0.000005 -0.000001 98.320700 86.180500 -100.322000 8.984550 -0.406207 -0.000000 -0.182472 1.243950 -3.998180 16.377300 -0.000001 -0.000001 1.638470 -2.698040 -2.026150 6.456720 -0.000001 -0.000000 -6.923570 -6.352090 -1.876320 12.994200 -0.242716 4.980390 -94.048400 10.098700 -68.019000 5.348090 -0.000007 -0.000001 -61.470800 -9.984810 5.848630 24.328600 0.000019 0.000005 3.154440 41.980200 -4.711350 22.291600 -0.000001 0.000005 -6.283750 4.837080 10.601400 12.994500 -0.242716 -4.980390 88.587800 3.941500 -70.269800 -5.348130 -0.000001 -0.000004 -66.441300 19.838900 -14.492000 -24.328900 0.000322 -0.000009 -1.797810 -1.913760 -43.198500 -22.291500 -0.000108 -0.000004 -0.815816 5.429700 -3.927610 -2.192480 -6.469440 -0.000000 -175.556000 -7.165510 -23.248900 39.081100 -0.000007 -0.000012 0.100088 -0.052104 62.496900 40.985400 -0.000006 -0.000013 -6.829840 -5.888770 -51.849200 11.754300 -0.000000 0.000003 0.002340 0.063416 -14.004700 -2.192510 6.469440 -0.000001 -175.246000 0.054318 -177.219000 -39.081100 -0.002282 -0.040193 0.011654 -0.025079 18.374400 -40.985400 0.000008 0.000006 5.516730 0.990777 -72.419800 -11.754300 -0.000006 -0.000006 0.000099 0.165984 -9.841200
0.000000 0.000000 0.000000 0.000000 0.000000 -0.000000 146.703000 92.054800 213.884000 114.798000 -73.958500 22.506600 15.735700 0.000005 -0.000001 112.626000 86.202900 -114.824000 8.984550 -0.406207 -0.000000 -0.693221 3.083190 -4.376030 16.377300 -0.000001 -0.000001 1.094130 -1.380960 -2.347390 6.456720 -0.000001 -0.000000 -7.217460 -5.380640 -2.036710 12.994200 -0.242716 4.980390 -94.190400 9.961980 -67.046400 5.348090 -0.000007 -0.000001 -59.196600 -17.141900 12.587400 24.328600 0.000019 0.000005 1.942710 44.902300 -2.750940 22.291600 -0.000001 0.000005 -7.000290 4.713640 12.912600 12.994500 -0.242716 -4.980390 88.645100 3.975550 -71.162500 -5.348130 -0.000001 -0.000004 -64.072900 21.962000 -19.260600 -24.328900 0.000322 -0.000009 -3.364380 -3.259080 -45.945100 -22.291500 -0.000108 -0.000004 0.596106 5.450910 -4.670020 -2.192480 -6.469440 -0.000000 -176.248000 -7.618960 -25.861200 39.081100 -0.000007 -0.000012 0.067487 -0.046172 55.619000 40.985400 -0.000006 -0.000013 -2.963250 -9.452660 -56.076500 11.754300 -0.000000 0.000003 0.002319 0.061979 -14.062900 -2.192510 6.469440 -0.000001 -178.080000 0.436548 -174.356000 -39.081100 -0.002282 -0.040193 0.003402 -0.000280 14.182800 -40.985400 0.000008 0.000006 4.911700 7.803940 -70.560100 -11.754300 -0.000006 -0.000006 0.001299 0.141820 -10.822000
0.000000 0.000000 0.000000 0.000000 0.000000 -0.000000 144.248000 92.342500 216.003000 125.016000 -78.498200 31.648800 15.735700 0.000005 -0.000001 122.764000 85.963500 -124.993000 8.984550 -0.406207 -0.000000 -0.885105 4.536220 -4.423030 16.377300 -0.000001 -0.000001 0.329386 -0.300978 -2.726840 6.456720 -0.000001 -0.000000 -7.923190 -4.559500 -2.320930 12.994200 -0.242716 4.980390 -94.339400 9.876580 -66.135700 5.348090 -0.000007 -0.000001 -57.563800 -18.948200 18.670200 24.328600 0.000019 0.000005 2.528650 44.039800 -3.635000 22.291600 -0.000001 0.000005 -8.784930 4.802420 11.265400 12.994500 -0.242716 -4.980390 88.717600 3.979470 -72.122800 -5.348130 -0.000001 -0.000004 -62.184900 22.617100 -23.446900 -24.328900 0.000322 -0.000009 -4.734750 -4.374660 -47.349000 -22.291500 -0.000108 -0.000004 1.752800 5.464270 -5.157070 -2.192480 -6.469440 -0.000000 -176.019000 -7.651320 -26.933800 39.081100 -0.000007 -0.000012 0.073506 -0.071053 45.971200 40.985400 -0.000006 -0.000013 -3.533530 -8.555340 -58.253300 11.754300 -0.000000 0.000003 0.002396 0.067764 -13.828400 -2.192510 6.469440 -0.000001 179.458000 0.409848 -172.026000 -39.081100 -0.002282 -0.040193 0.001839 0.007792 10.883800 -40.985400 0.000008 0.000006 3.906910 13.227300 -69.169400 -11.754300 -0.000006 -0.000006 0.001363 0.140226 -10.886700
0.000000 0.000000 0.000000 0.000000 0.000000 -0.000000 141.537000 92.171900 218.073000 136.951000 -81.434300 42.934800 15.735700 0.000005 -0.000001 128.763000 85.616000 -130.921000 8.984550 -0.406207 -0.000000 -0.818536 5.650160 -4.278120 16.377300 -0.000001 -0.000001 -0.350091 0.354800 -3.179790 6.456720 -0.000001 -0.000000 -8.701800 -4.194130 -2.451090 12.994200 -0.242716 4.980390 -94.228400 9.376540 -65.591500 5.348090 -0.000007 -0.000001 -57.331000 -18.535700 22.495900 24.328600 0.000019 0.000005 2.104970 40.369200 -3.247510 22.291600 -0.000001 0.000005 -9.598230 4.898200 9.412920 12.994500 -0.242716 -4.980390 88.831400 3.752890 -72.690200 -5.348130 -0.000001 -0.000004 -62.198100 21.672600 -26.052800 -24.328900 0.000322 -0.000009 -5.296200 -4.891530 -47.384700 -22.291500 -0.000108 -0.000004 2.106210 5.468960 -5.331810 -2.192480 -6.469440 -0.000000 -175.554000 -8.393350 -26.685000 39.081100 -0.000007 -0.000012 0.066007 -0.095444 34.666200 40.985400 -0.000006 -0.000013 -6.777100 -2.647190 -58.234400 11.754300 -0.000000 0.000003 0.002342 0.063544 -13.999400 -2.192510 6.469440 -0.000001 177.738000 -0.588416 -170.349000 -39.081100 -0.002282 -0.040193 0.001489 0.010909 9.627360 -40.985400 0.000008 0.000006 2.672750 16.084900 -68.309900 -11.754300 -0.000006 -0.000006 0.002219 0.111454 -12.053600
